<?xml version="1.0" standalone="no"?>
<!DOCTYPE svg PUBLIC "-//W3C//DTD SVG 20010904//EN"
 "http://www.w3.org/TR/2001/REC-SVG-20010904/DTD/svg10.dtd">
<svg version="1.0" xmlns="http://www.w3.org/2000/svg"
 width="743.000000pt" height="336.000000pt" viewBox="0 0 743.000000 336.000000"
 preserveAspectRatio="xMidYMid meet">

<g transform="translate(0.000000,336.000000) scale(0.100000,-0.100000)"
fill="#000000" stroke="none">
<path d="M2372 2528 l2 -173 3 168 3 167 1335 0 1335 0 3 -167 3 -168 2 173 2
172 -1345 0 -1345 0 2 -172z"/>
<path d="M3715 2085 c0 -242 1 -340 2 -217 2 123 2 321 0 440 -1 119 -2 19 -2
-223z"/>
<path d="M3119 2360 c-146 -25 -229 -114 -237 -252 -8 -136 64 -249 182 -283
103 -30 283 -4 300 42 9 23 5 24 -44 7 -63 -22 -148 -20 -202 4 -135 60 -174
286 -67 393 63 63 157 73 242 26 31 -17 37 -26 37 -53 0 -34 17 -55 25 -32 2
7 6 37 7 67 l3 55 -40 12 c-59 17 -153 24 -206 14z"/>
<path d="M4229 2323 c-22 -69 -169 -427 -184 -450 -9 -13 -24 -23 -35 -23 -11
0 -20 -6 -20 -13 0 -10 22 -13 85 -14 65 0 85 3 85 13 0 8 -11 14 -25 14 -35
0 -38 16 -17 80 l19 55 100 3 100 3 23 -60 c24 -66 21 -81 -16 -81 -13 0 -24
-6 -24 -13 0 -11 26 -13 118 -13 116 1 135 8 91 30 -22 11 -77 125 -194 409
-36 89 -42 97 -67 97 -22 0 -29 -7 -39 -37z m50 -193 c27 -67 36 -97 27 -102
-16 -11 -134 -10 -140 1 -6 8 64 204 70 198 2 -2 21 -45 43 -97z"/>
<path d="M2372 1648 l-2 -178 1345 0 1345 0 -2 173 -2 172 -3 -167 -3 -168
-1335 0 -1335 0 -3 173 -3 172 -2 -177z"/>
<path d="M1041 991 c-80 -21 -124 -84 -118 -169 4 -56 24 -91 71 -126 50 -38
216 -26 216 16 0 5 -9 4 -19 -2 -11 -5 -44 -10 -74 -10 -46 0 -60 4 -85 28
-58 55 -64 161 -12 214 35 35 86 44 133 24 30 -12 37 -21 38 -43 l1 -28 8 25
c13 40 11 57 -6 64 -29 11 -119 15 -153 7z"/>
<path d="M1805 987 c-39 -18 -55 -38 -61 -79 -8 -49 18 -75 96 -96 64 -17 65
-18 68 -54 2 -28 -2 -40 -20 -52 -46 -33 -119 -11 -129 39 l-6 30 -8 -38 c-10
-53 2 -62 83 -62 79 0 116 21 131 73 19 66 -10 101 -98 116 -40 7 -71 32 -71
55 1 33 29 56 69 56 44 0 71 -18 72 -49 1 -13 4 -7 9 14 5 19 5 38 1 43 -15
15 -105 18 -136 4z"/>
<path d="M1395 846 c-41 -101 -64 -147 -79 -154 -17 -9 -10 -11 34 -10 30 0
47 2 37 5 -16 4 -18 11 -12 41 4 20 9 40 11 44 3 5 31 8 64 8 56 0 58 -1 69
-31 15 -44 14 -57 -6 -62 -10 -3 16 -5 57 -5 43 0 67 3 56 7 -13 5 -40 57 -80
152 -39 91 -67 145 -78 147 -12 2 -29 -31 -73 -142z m82 7 c12 -28 19 -54 15
-57 -7 -8 -92 -8 -92 0 0 18 46 122 51 116 3 -4 15 -30 26 -59z"/>
<path d="M2160 853 c-30 -75 -62 -145 -72 -155 -17 -17 -16 -18 29 -18 41 0
45 2 29 13 -17 12 -17 18 -6 51 l12 37 60 -3 c61 -3 61 -3 74 -41 13 -36 12
-38 -9 -47 -16 -6 -1 -9 53 -9 66 -1 72 1 55 13 -11 8 -47 77 -80 155 -41 95
-65 141 -76 141 -10 0 -32 -42 -69 -137z m77 5 c12 -29 19 -56 16 -60 -2 -5
-22 -8 -43 -8 -21 0 -41 3 -43 8 -6 9 33 112 43 112 4 0 16 -24 27 -52z"/>
<path d="M2856 845 c-32 -80 -65 -149 -74 -155 -12 -7 -2 -9 38 -9 45 0 51 2
31 10 -19 8 -22 14 -16 37 11 44 24 52 81 52 30 0 54 -2 54 -4 0 -2 7 -20 15
-40 15 -35 15 -37 -7 -46 -17 -6 -4 -9 52 -9 68 -1 73 0 54 14 -12 8 -46 73
-80 155 -41 99 -63 140 -74 140 -12 0 -33 -41 -74 -145z m81 13 c12 -29 19
-56 16 -60 -2 -5 -22 -8 -43 -8 -21 0 -41 3 -43 8 -6 9 33 112 43 112 4 0 16
-24 27 -52z"/>
<path d="M3208 980 c21 -9 22 -14 22 -145 0 -131 -1 -136 -22 -145 -17 -6 -3
-9 52 -9 55 0 69 3 53 9 -22 9 -23 14 -23 145 l0 135 34 0 c40 0 59 -20 59
-62 0 -29 -24 -60 -54 -70 -7 -2 9 -37 36 -81 47 -75 49 -77 88 -77 l40 0 -20
23 c-11 12 -38 48 -58 80 -37 55 -37 58 -19 72 10 8 22 15 26 15 13 0 27 61
18 84 -12 32 -27 36 -148 35 -74 0 -100 -3 -84 -9z"/>
<path d="M3581 953 c1 -37 1 -38 11 -10 9 24 15 27 54 27 l44 0 0 -127 c0
-130 -3 -146 -30 -156 -8 -3 19 -5 60 -6 55 0 69 3 53 9 -22 9 -23 14 -23 145
l0 136 43 -3 c35 -2 43 -7 45 -25 5 -36 22 -27 22 12 l0 35 -140 0 -140 0 1
-37z"/>
<path d="M3968 980 c21 -9 22 -14 22 -145 0 -131 -1 -136 -22 -145 -17 -6 -3
-9 52 -9 55 0 69 3 53 9 -22 9 -23 14 -23 145 0 131 1 136 23 145 16 6 2 9
-53 9 -55 0 -69 -3 -52 -9z"/>
<path d="M4210 953 l1 -38 15 28 c14 25 19 27 79 27 36 0 65 -3 65 -7 0 -4
-40 -67 -90 -140 -49 -73 -90 -135 -90 -138 0 -3 59 -5 130 -5 97 0 130 3 130
13 0 6 3 22 6 35 4 13 2 22 -5 22 -6 0 -11 -9 -11 -20 0 -28 -14 -31 -99 -28
l-73 3 83 123 c46 67 90 131 98 142 13 20 11 20 -113 20 l-126 0 0 -37z"/>
<path d="M4646 848 c-31 -77 -64 -147 -74 -154 -15 -12 -10 -13 33 -13 28 1
42 3 33 6 -21 5 -23 31 -6 68 10 23 17 25 69 25 55 0 57 -1 68 -31 15 -44 14
-57 -6 -62 -10 -3 14 -5 52 -6 46 0 65 3 55 9 -9 5 -43 74 -75 154 -43 104
-65 146 -76 146 -12 0 -33 -39 -73 -142z m83 0 c11 -25 17 -49 14 -52 -10 -9
-93 -7 -93 3 0 21 44 111 51 104 4 -4 17 -29 28 -55z"/>
<path d="M4998 980 c21 -9 22 -14 22 -145 0 -131 -1 -136 -22 -145 -18 -7 -10
-9 32 -8 30 0 48 2 39 5 -10 2 -20 14 -23 26 -8 32 -7 207 2 206 4 0 34 -34
67 -76 79 -100 148 -173 163 -173 9 0 12 40 12 150 0 147 1 151 23 160 17 7
10 9 -33 9 -30 -1 -48 -3 -40 -6 8 -3 18 -11 22 -17 11 -15 10 -196 0 -196 -9
0 -115 123 -162 188 -22 29 -28 32 -74 31 -41 0 -46 -2 -28 -9z"/>
<path d="M5566 982 c-2 -4 -27 -66 -56 -137 -28 -72 -60 -138 -72 -147 -20
-18 -19 -18 33 -17 43 0 49 2 32 9 -27 11 -27 11 -9 55 15 34 17 35 71 35 55
0 56 -1 71 -37 15 -34 15 -38 -2 -50 -15 -11 -8 -13 50 -13 66 0 68 1 49 18
-11 9 -35 53 -52 97 -60 146 -84 195 -97 195 -7 0 -15 -3 -18 -8z m40 -168 c6
-23 4 -24 -40 -24 -51 0 -55 6 -32 61 7 19 16 43 21 54 6 17 10 14 26 -24 11
-24 22 -54 25 -67z"/>
<path d="M5858 980 c21 -9 22 -14 22 -149 0 -102 -3 -141 -12 -144 -7 -3 37
-6 98 -6 l112 -1 4 35 c4 38 -9 50 -14 13 -3 -21 -9 -23 -65 -26 l-63 -3 0
128 c0 130 3 146 30 156 8 3 -19 5 -60 6 -55 0 -69 -3 -52 -9z"/>
<path d="M6327 983 c-3 -5 -28 -67 -57 -138 -28 -72 -60 -138 -72 -147 -20
-18 -19 -18 33 -17 43 0 49 2 32 9 -27 11 -27 11 -9 55 15 34 17 35 71 35 55
0 56 -1 71 -37 15 -34 15 -38 -2 -50 -15 -11 -8 -13 49 -13 65 0 66 1 49 18
-11 11 -34 54 -52 98 -18 43 -43 104 -55 134 -21 51 -46 73 -58 53z m43 -180
c0 -9 -16 -13 -45 -13 -53 0 -55 6 -24 77 l21 48 24 -50 c13 -27 24 -56 24
-62z"/>
<path d="M7421 24 c0 -11 3 -14 6 -6 3 7 2 16 -1 19 -3 4 -6 -2 -5 -13z"/>
</g>
</svg>
